<mxfile host="Electron" modified="2023-10-04T13:30:05.292Z" agent="Mozilla/5.0 (Macintosh; Intel Mac OS X 10_15_7) AppleWebKit/537.36 (KHTML, like Gecko) draw.io/22.0.2 Chrome/114.0.5735.289 Electron/25.8.4 Safari/537.36" etag="Oxs4FKoEn3QRFjrvUhjQ" version="22.0.2" type="device">
  <diagram name="Page-1" id="90a13364-a465-7bf4-72fc-28e22215d7a0">
    <mxGraphModel dx="2714" dy="1627" grid="0" gridSize="10" guides="1" tooltips="1" connect="1" arrows="1" fold="1" page="1" pageScale="2.2" pageWidth="1169" pageHeight="826" background="none" math="0" shadow="0">
      <root>
        <mxCell id="0" style=";html=1;" />
        <mxCell id="1" style=";html=1;" parent="0" />
        <mxCell id="FMqgNXlzVBc7Y1tqh_Sm-53" value="&lt;h2 style=&quot;font-size: 28px;&quot;&gt;Navigation Pod Enclosure&lt;/h2&gt;" style="rounded=0;whiteSpace=wrap;html=1;align=left;imageVerticalAlign=middle;verticalAlign=top;dashed=1;fillColor=none;fontSize=28;" vertex="1" parent="1">
          <mxGeometry x="1448" y="52" width="908" height="883" as="geometry" />
        </mxCell>
        <mxCell id="FMqgNXlzVBc7Y1tqh_Sm-22" value="&lt;h2 style=&quot;font-size: 28px; line-height: 70%;&quot;&gt;Floating Surface&amp;nbsp;&lt;/h2&gt;&lt;h2 style=&quot;font-size: 28px; line-height: 70%;&quot;&gt;Buoy Enclosure&lt;/h2&gt;" style="rounded=0;whiteSpace=wrap;html=1;align=left;imageVerticalAlign=middle;verticalAlign=top;dashed=1;fontSize=28;" vertex="1" parent="1">
          <mxGeometry x="284" y="218" width="810" height="680" as="geometry" />
        </mxCell>
        <mxCell id="3a17f1ce550125da-1" value="Qubitro &lt;br&gt;IoT Platform" style="whiteSpace=wrap;html=1;shadow=1;fontSize=20;fillColor=#f5f5f5;strokeColor=#666666;strokeWidth=2;dashed=1;" parent="1" vertex="1">
          <mxGeometry x="871" y="58" width="180" height="105" as="geometry" />
        </mxCell>
        <mxCell id="3a17f1ce550125da-13" style="edgeStyle=elbowEdgeStyle;rounded=0;html=1;startArrow=classic;startFill=1;jettySize=auto;orthogonalLoop=1;fontSize=18;elbow=vertical;" parent="1" source="3a17f1ce550125da-2" target="3a17f1ce550125da-4" edge="1">
          <mxGeometry relative="1" as="geometry" />
        </mxCell>
        <mxCell id="FMqgNXlzVBc7Y1tqh_Sm-28" value="&amp;nbsp;UART&amp;nbsp;" style="edgeLabel;html=1;align=center;verticalAlign=middle;resizable=0;points=[];fontSize=18;" vertex="1" connectable="0" parent="3a17f1ce550125da-13">
          <mxGeometry x="0.5862" y="-1" relative="1" as="geometry">
            <mxPoint x="-30" as="offset" />
          </mxGeometry>
        </mxCell>
        <mxCell id="3a17f1ce550125da-2" value="ESP32 &quot;Lemon&quot;&lt;br&gt;M5StickC Plus" style="whiteSpace=wrap;html=1;shadow=1;fontSize=18;fillColor=#f5f5f5;strokeColor=#666666;" parent="1" vertex="1">
          <mxGeometry x="593.5" y="508" width="160.5" height="160" as="geometry" />
        </mxCell>
        <mxCell id="3a17f1ce550125da-4" value="UART / RS485 Converter Module" style="whiteSpace=wrap;html=1;shadow=1;fontSize=18;fillColor=#f5f5f5;strokeColor=#666666;" parent="1" vertex="1">
          <mxGeometry x="874" y="508" width="183" height="160" as="geometry" />
        </mxCell>
        <mxCell id="3a17f1ce550125da-20" style="edgeStyle=elbowEdgeStyle;rounded=0;html=1;startArrow=none;startFill=0;jettySize=auto;orthogonalLoop=1;fontSize=18;elbow=vertical;" parent="1" source="3a17f1ce550125da-8" target="3a17f1ce550125da-2" edge="1">
          <mxGeometry relative="1" as="geometry">
            <Array as="points">
              <mxPoint x="551" y="582" />
            </Array>
          </mxGeometry>
        </mxCell>
        <mxCell id="FMqgNXlzVBc7Y1tqh_Sm-29" value="&amp;nbsp;UART&amp;nbsp;" style="edgeLabel;html=1;align=center;verticalAlign=middle;resizable=0;points=[];fontSize=18;" vertex="1" connectable="0" parent="3a17f1ce550125da-20">
          <mxGeometry x="0.0431" relative="1" as="geometry">
            <mxPoint as="offset" />
          </mxGeometry>
        </mxCell>
        <mxCell id="3a17f1ce550125da-8" value="GPS Module" style="whiteSpace=wrap;html=1;shadow=1;fontSize=18;fillColor=#f5f5f5;strokeColor=#666666;" parent="1" vertex="1">
          <mxGeometry x="324" y="508" width="130" height="160" as="geometry" />
        </mxCell>
        <mxCell id="3a17f1ce550125da-10" value="WiFi / LTE&lt;br&gt;&amp;nbsp;Hotspot" style="whiteSpace=wrap;html=1;shadow=1;fontSize=18;fillColor=#f5f5f5;strokeColor=#666666;" parent="1" vertex="1">
          <mxGeometry x="593.5" y="278" width="160.5" height="120" as="geometry" />
        </mxCell>
        <mxCell id="FMqgNXlzVBc7Y1tqh_Sm-1" value="&lt;font style=&quot;font-size: 24px;&quot;&gt;Internet&lt;/font&gt;" style="ellipse;shape=cloud;whiteSpace=wrap;html=1;" vertex="1" parent="1">
          <mxGeometry x="574" y="48" width="180" height="125" as="geometry" />
        </mxCell>
        <mxCell id="FMqgNXlzVBc7Y1tqh_Sm-2" value="" style="html=1;verticalLabelPosition=bottom;align=center;labelBackgroundColor=#ffffff;verticalAlign=top;strokeWidth=2;strokeColor=#0080F0;shadow=0;dashed=0;shape=mxgraph.ios7.icons.wifi;pointerEvents=1" vertex="1" parent="1">
          <mxGeometry x="696.5999999999999" y="446.5" width="29.7" height="21" as="geometry" />
        </mxCell>
        <mxCell id="FMqgNXlzVBc7Y1tqh_Sm-3" style="edgeStyle=elbowEdgeStyle;rounded=0;html=1;startArrow=none;startFill=0;jettySize=auto;orthogonalLoop=1;fontSize=18;elbow=vertical;" edge="1" parent="1">
          <mxGeometry relative="1" as="geometry">
            <mxPoint x="671.7" y="487" as="sourcePoint" />
            <mxPoint x="671.7" y="427" as="targetPoint" />
          </mxGeometry>
        </mxCell>
        <mxCell id="FMqgNXlzVBc7Y1tqh_Sm-5" value="" style="fontColor=#0066CC;verticalAlign=top;verticalLabelPosition=bottom;labelPosition=center;align=center;html=1;outlineConnect=0;fillColor=#CCCCCC;strokeColor=#6881B3;gradientColor=none;gradientDirection=north;strokeWidth=2;shape=mxgraph.networks.radio_tower;" vertex="1" parent="1">
          <mxGeometry x="694" y="188" width="27.5" height="50" as="geometry" />
        </mxCell>
        <mxCell id="FMqgNXlzVBc7Y1tqh_Sm-12" value="MQTT Messaging" style="text;strokeColor=none;align=center;fillColor=none;html=1;verticalAlign=middle;whiteSpace=wrap;rounded=0;fontSize=18;" vertex="1" parent="1">
          <mxGeometry x="588.7" y="446.5" width="60" height="30" as="geometry" />
        </mxCell>
        <mxCell id="FMqgNXlzVBc7Y1tqh_Sm-19" style="edgeStyle=elbowEdgeStyle;rounded=0;html=1;startArrow=none;startFill=0;jettySize=auto;orthogonalLoop=1;fontSize=18;elbow=vertical;" edge="1" parent="1">
          <mxGeometry relative="1" as="geometry">
            <mxPoint x="666.64" y="243.25" as="sourcePoint" />
            <mxPoint x="666.64" y="183.25" as="targetPoint" />
          </mxGeometry>
        </mxCell>
        <mxCell id="FMqgNXlzVBc7Y1tqh_Sm-98" value="UART" style="edgeStyle=none;rounded=0;orthogonalLoop=1;jettySize=auto;html=1;startArrow=classic;startFill=1;fontSize=18;" edge="1" parent="1" source="FMqgNXlzVBc7Y1tqh_Sm-23" target="FMqgNXlzVBc7Y1tqh_Sm-24">
          <mxGeometry x="-0.0108" relative="1" as="geometry">
            <mxPoint as="offset" />
          </mxGeometry>
        </mxCell>
        <mxCell id="FMqgNXlzVBc7Y1tqh_Sm-23" value="ESP32 &quot;Mako&quot;&lt;br&gt;M5StickC Plus" style="whiteSpace=wrap;html=1;shadow=1;fontSize=18;fillColor=#f5f5f5;strokeColor=#666666;" vertex="1" parent="1">
          <mxGeometry x="1776" y="488" width="160.5" height="160" as="geometry" />
        </mxCell>
        <mxCell id="FMqgNXlzVBc7Y1tqh_Sm-24" value="UART / RS485 Converter Module" style="whiteSpace=wrap;html=1;shadow=1;fontSize=18;fillColor=#f5f5f5;strokeColor=#666666;" vertex="1" parent="1">
          <mxGeometry x="1484" y="492" width="183" height="160" as="geometry" />
        </mxCell>
        <mxCell id="FMqgNXlzVBc7Y1tqh_Sm-32" value="5V USB &lt;br&gt;Power Bank" style="whiteSpace=wrap;html=1;shadow=1;fontSize=18;fillColor=#f5f5f5;strokeColor=#666666;" vertex="1" parent="1">
          <mxGeometry x="608.75" y="738" width="130" height="110" as="geometry" />
        </mxCell>
        <mxCell id="FMqgNXlzVBc7Y1tqh_Sm-33" value="5V to 9V Step-Up Regulator" style="whiteSpace=wrap;html=1;shadow=1;fontSize=18;fillColor=#f5f5f5;strokeColor=#666666;" vertex="1" parent="1">
          <mxGeometry x="874" y="738" width="180" height="110" as="geometry" />
        </mxCell>
        <mxCell id="FMqgNXlzVBc7Y1tqh_Sm-51" value="" style="group" vertex="1" connectable="0" parent="1">
          <mxGeometry x="1131" y="538" width="290" height="75.19" as="geometry" />
        </mxCell>
        <mxCell id="FMqgNXlzVBc7Y1tqh_Sm-37" value="" style="ellipse;whiteSpace=wrap;html=1;container=0;fillColor=#dae8fc;strokeColor=#6c8ebf;" vertex="1" parent="FMqgNXlzVBc7Y1tqh_Sm-51">
          <mxGeometry y="0.18999999999999773" width="20" height="75" as="geometry" />
        </mxCell>
        <mxCell id="FMqgNXlzVBc7Y1tqh_Sm-42" value="" style="curved=1;endArrow=none;html=1;rounded=0;endFill=0;edgeStyle=orthogonalEdgeStyle;" edge="1" parent="FMqgNXlzVBc7Y1tqh_Sm-51">
          <mxGeometry width="50" height="50" relative="1" as="geometry">
            <mxPoint x="280" y="75.19" as="sourcePoint" />
            <mxPoint x="280" y="0.18999999999999773" as="targetPoint" />
            <Array as="points">
              <mxPoint x="290" y="75.19" />
              <mxPoint x="290" y="0.18999999999999773" />
            </Array>
          </mxGeometry>
        </mxCell>
        <mxCell id="FMqgNXlzVBc7Y1tqh_Sm-48" value="" style="endArrow=none;html=1;rounded=0;" edge="1" parent="FMqgNXlzVBc7Y1tqh_Sm-51">
          <mxGeometry width="50" height="50" relative="1" as="geometry">
            <mxPoint x="10" y="75.19" as="sourcePoint" />
            <mxPoint x="280" y="75.19" as="targetPoint" />
          </mxGeometry>
        </mxCell>
        <mxCell id="FMqgNXlzVBc7Y1tqh_Sm-49" value="" style="endArrow=none;html=1;rounded=0;" edge="1" parent="FMqgNXlzVBc7Y1tqh_Sm-51">
          <mxGeometry width="50" height="50" relative="1" as="geometry">
            <mxPoint x="10" as="sourcePoint" />
            <mxPoint x="280" as="targetPoint" />
          </mxGeometry>
        </mxCell>
        <mxCell id="FMqgNXlzVBc7Y1tqh_Sm-25" value="" style="endArrow=classic;startArrow=classic;html=1;rounded=0;" edge="1" parent="1">
          <mxGeometry width="50" height="50" relative="1" as="geometry">
            <mxPoint x="1057" y="557.66" as="sourcePoint" />
            <mxPoint x="1484" y="558" as="targetPoint" />
          </mxGeometry>
        </mxCell>
        <mxCell id="FMqgNXlzVBc7Y1tqh_Sm-27" value="&amp;nbsp;RS485&amp;nbsp;" style="edgeLabel;html=1;align=center;verticalAlign=middle;resizable=0;points=[];fontSize=18;" vertex="1" connectable="0" parent="FMqgNXlzVBc7Y1tqh_Sm-25">
          <mxGeometry x="0.1406" y="-1" relative="1" as="geometry">
            <mxPoint x="-30" y="-1" as="offset" />
          </mxGeometry>
        </mxCell>
        <mxCell id="FMqgNXlzVBc7Y1tqh_Sm-30" style="edgeStyle=orthogonalEdgeStyle;rounded=0;html=1;startArrow=none;startFill=0;jettySize=auto;orthogonalLoop=1;fontSize=18;elbow=horizontal;exitX=1.012;exitY=0.434;exitDx=0;exitDy=0;exitPerimeter=0;" edge="1" parent="1" source="FMqgNXlzVBc7Y1tqh_Sm-33" target="FMqgNXlzVBc7Y1tqh_Sm-59">
          <mxGeometry relative="1" as="geometry">
            <Array as="points">
              <mxPoint x="1072" y="786" />
              <mxPoint x="1072" y="586" />
              <mxPoint x="1464" y="586" />
              <mxPoint x="1464" y="475" />
              <mxPoint x="1463" y="475" />
              <mxPoint x="1463" y="399" />
            </Array>
            <mxPoint x="1034" y="787.72" as="sourcePoint" />
            <mxPoint x="1404" y="853" as="targetPoint" />
          </mxGeometry>
        </mxCell>
        <mxCell id="FMqgNXlzVBc7Y1tqh_Sm-31" value="&amp;nbsp;Power Supply&amp;nbsp;" style="edgeLabel;html=1;align=center;verticalAlign=middle;resizable=0;points=[];fontSize=18;" vertex="1" connectable="0" parent="FMqgNXlzVBc7Y1tqh_Sm-30">
          <mxGeometry x="0.0431" relative="1" as="geometry">
            <mxPoint x="-9" y="-2" as="offset" />
          </mxGeometry>
        </mxCell>
        <mxCell id="FMqgNXlzVBc7Y1tqh_Sm-52" value="11 metre Underwater 4-Core Cable" style="text;strokeColor=none;align=center;fillColor=none;html=1;verticalAlign=middle;whiteSpace=wrap;rounded=0;fontStyle=1;fontSize=18;" vertex="1" parent="1">
          <mxGeometry x="1179.12" y="492" width="193.75" height="30" as="geometry" />
        </mxCell>
        <mxCell id="FMqgNXlzVBc7Y1tqh_Sm-54" value="Accelerometer and Digital Compass Sensor" style="whiteSpace=wrap;html=1;shadow=1;fontSize=18;fillColor=#f5f5f5;strokeColor=#666666;" vertex="1" parent="1">
          <mxGeometry x="2072.14" y="612" width="212" height="82" as="geometry" />
        </mxCell>
        <mxCell id="FMqgNXlzVBc7Y1tqh_Sm-55" value="Gesture Sensor" style="whiteSpace=wrap;html=1;shadow=1;fontSize=18;fillColor=#f5f5f5;strokeColor=#666666;" vertex="1" parent="1">
          <mxGeometry x="2070.89" y="505" width="213.25" height="82" as="geometry" />
        </mxCell>
        <mxCell id="FMqgNXlzVBc7Y1tqh_Sm-57" value="External Water Depth / Temperature Sensor" style="whiteSpace=wrap;html=1;shadow=1;fontSize=18;fillColor=#f5f5f5;strokeColor=#666666;" vertex="1" parent="1">
          <mxGeometry x="2072.64" y="720" width="211.5" height="82" as="geometry" />
        </mxCell>
        <mxCell id="FMqgNXlzVBc7Y1tqh_Sm-58" value="Internal Air Temperature / Humidity / Pressure Sensor" style="whiteSpace=wrap;html=1;shadow=1;fontSize=18;fillColor=#f5f5f5;strokeColor=#666666;" vertex="1" parent="1">
          <mxGeometry x="2072.64" y="832" width="215" height="82" as="geometry" />
        </mxCell>
        <mxCell id="FMqgNXlzVBc7Y1tqh_Sm-59" value="9V to 5V Step-Down Regulator" style="whiteSpace=wrap;html=1;shadow=1;fontSize=18;fillColor=#f5f5f5;strokeColor=#666666;" vertex="1" parent="1">
          <mxGeometry x="1482.5" y="344" width="180" height="110" as="geometry" />
        </mxCell>
        <mxCell id="FMqgNXlzVBc7Y1tqh_Sm-67" value="ESP32 &quot;Tiger&quot;&lt;br&gt;M5StickC Plus" style="whiteSpace=wrap;html=1;shadow=1;fontSize=18;fillColor=#f5f5f5;strokeColor=#666666;" vertex="1" parent="1">
          <mxGeometry x="1776" y="168" width="160.5" height="160" as="geometry" />
        </mxCell>
        <mxCell id="FMqgNXlzVBc7Y1tqh_Sm-68" value="Water Ingress Sensor" style="whiteSpace=wrap;html=1;shadow=1;fontSize=18;fillColor=#f5f5f5;strokeColor=#666666;" vertex="1" parent="1">
          <mxGeometry x="2062.52" y="131" width="213.25" height="82" as="geometry" />
        </mxCell>
        <mxCell id="FMqgNXlzVBc7Y1tqh_Sm-69" value="&lt;h2 style=&quot;font-size: 28px;&quot;&gt;Audio Pod Enclosure&lt;/h2&gt;" style="rounded=0;whiteSpace=wrap;html=1;align=left;imageVerticalAlign=middle;verticalAlign=top;dashed=1;fillColor=none;fontSize=28;" vertex="1" parent="1">
          <mxGeometry x="1448" y="1074" width="823" height="612" as="geometry" />
        </mxCell>
        <mxCell id="FMqgNXlzVBc7Y1tqh_Sm-70" value="ESP32-C3 &quot;Silky&quot;&lt;br&gt;DFRobot Beetle" style="whiteSpace=wrap;html=1;shadow=1;fontSize=18;fillColor=#f5f5f5;strokeColor=#666666;" vertex="1" parent="1">
          <mxGeometry x="1780.5" y="1181" width="160.5" height="160" as="geometry" />
        </mxCell>
        <mxCell id="FMqgNXlzVBc7Y1tqh_Sm-71" value="3.6V &lt;br&gt;Lithium Ion Cell" style="whiteSpace=wrap;html=1;shadow=1;fontSize=18;fillColor=#f5f5f5;strokeColor=#666666;" vertex="1" parent="1">
          <mxGeometry x="1533" y="1181" width="160.5" height="160" as="geometry" />
        </mxCell>
        <mxCell id="FMqgNXlzVBc7Y1tqh_Sm-72" value="Flash File Storage for Audio Directions&amp;nbsp; WAV Files" style="whiteSpace=wrap;html=1;shadow=1;fontSize=18;fillColor=#f5f5f5;strokeColor=#666666;" vertex="1" parent="1">
          <mxGeometry x="2046.25" y="1181" width="160.5" height="160" as="geometry" />
        </mxCell>
        <mxCell id="FMqgNXlzVBc7Y1tqh_Sm-73" value="3.6V to 5V 3A&lt;br&gt;Step-Up Regulators to power Amplifiers" style="whiteSpace=wrap;html=1;shadow=1;fontSize=18;fillColor=#f5f5f5;strokeColor=#666666;" vertex="1" parent="1">
          <mxGeometry x="1533" y="1481" width="160.5" height="160" as="geometry" />
        </mxCell>
        <mxCell id="FMqgNXlzVBc7Y1tqh_Sm-74" value="I2S to Analogue Amplifier(s)" style="whiteSpace=wrap;html=1;shadow=1;fontSize=18;fillColor=#f5f5f5;strokeColor=#666666;" vertex="1" parent="1">
          <mxGeometry x="1780.5" y="1481" width="160.5" height="160" as="geometry" />
        </mxCell>
        <mxCell id="FMqgNXlzVBc7Y1tqh_Sm-75" value="Audio Exciter(s)" style="whiteSpace=wrap;html=1;shadow=1;fontSize=18;fillColor=#f5f5f5;strokeColor=#666666;" vertex="1" parent="1">
          <mxGeometry x="2047.13" y="1481" width="160.5" height="160" as="geometry" />
        </mxCell>
        <mxCell id="FMqgNXlzVBc7Y1tqh_Sm-77" value="ESP-Now&lt;br style=&quot;font-size: 18px;&quot;&gt;WiFI" style="html=1;verticalLabelPosition=bottom;align=center;labelBackgroundColor=#ffffff;verticalAlign=top;strokeWidth=2;strokeColor=#0080F0;shadow=0;dashed=0;shape=mxgraph.ios7.icons.wifi;pointerEvents=1;fontSize=18;" vertex="1" parent="1">
          <mxGeometry x="1841.4" y="972" width="29.7" height="21" as="geometry" />
        </mxCell>
        <mxCell id="FMqgNXlzVBc7Y1tqh_Sm-81" value="" style="edgeStyle=none;orthogonalLoop=1;jettySize=auto;html=1;rounded=0;exitX=0.5;exitY=1;exitDx=0;exitDy=0;" edge="1" parent="1" source="FMqgNXlzVBc7Y1tqh_Sm-23">
          <mxGeometry width="80" relative="1" as="geometry">
            <mxPoint x="1815" y="685" as="sourcePoint" />
            <mxPoint x="1857" y="960" as="targetPoint" />
            <Array as="points" />
          </mxGeometry>
        </mxCell>
        <mxCell id="FMqgNXlzVBc7Y1tqh_Sm-88" value="I2C" style="edgeStyle=none;orthogonalLoop=1;jettySize=auto;html=1;rounded=0;exitX=0.005;exitY=0.47;exitDx=0;exitDy=0;entryX=0.996;entryY=0.159;entryDx=0;entryDy=0;exitPerimeter=0;entryPerimeter=0;fontSize=18;" edge="1" parent="1" source="FMqgNXlzVBc7Y1tqh_Sm-55" target="FMqgNXlzVBc7Y1tqh_Sm-23">
          <mxGeometry width="80" relative="1" as="geometry">
            <mxPoint x="1970" y="284" as="sourcePoint" />
            <mxPoint x="1889" y="489" as="targetPoint" />
            <Array as="points" />
          </mxGeometry>
        </mxCell>
        <mxCell id="FMqgNXlzVBc7Y1tqh_Sm-89" value="I2C" style="edgeStyle=none;orthogonalLoop=1;jettySize=auto;html=1;rounded=0;exitX=0;exitY=0.5;exitDx=0;exitDy=0;entryX=1.001;entryY=0.389;entryDx=0;entryDy=0;entryPerimeter=0;fontSize=18;" edge="1" parent="1" source="FMqgNXlzVBc7Y1tqh_Sm-54" target="FMqgNXlzVBc7Y1tqh_Sm-23">
          <mxGeometry width="80" relative="1" as="geometry">
            <mxPoint x="1985" y="372" as="sourcePoint" />
            <mxPoint x="1900" y="499" as="targetPoint" />
            <Array as="points" />
          </mxGeometry>
        </mxCell>
        <mxCell id="FMqgNXlzVBc7Y1tqh_Sm-90" value="I2C" style="edgeStyle=none;orthogonalLoop=1;jettySize=auto;html=1;rounded=0;exitX=0;exitY=0.5;exitDx=0;exitDy=0;entryX=1.002;entryY=0.631;entryDx=0;entryDy=0;entryPerimeter=0;fontSize=18;" edge="1" parent="1" source="FMqgNXlzVBc7Y1tqh_Sm-57" target="FMqgNXlzVBc7Y1tqh_Sm-23">
          <mxGeometry width="80" relative="1" as="geometry">
            <mxPoint x="1984" y="499" as="sourcePoint" />
            <mxPoint x="1900" y="539" as="targetPoint" />
            <Array as="points" />
          </mxGeometry>
        </mxCell>
        <mxCell id="FMqgNXlzVBc7Y1tqh_Sm-91" value="I2C" style="edgeStyle=none;orthogonalLoop=1;jettySize=auto;html=1;rounded=0;exitX=0;exitY=0.5;exitDx=0;exitDy=0;entryX=1.013;entryY=0.823;entryDx=0;entryDy=0;entryPerimeter=0;fontSize=18;" edge="1" parent="1" source="FMqgNXlzVBc7Y1tqh_Sm-58" target="FMqgNXlzVBc7Y1tqh_Sm-23">
          <mxGeometry width="80" relative="1" as="geometry">
            <mxPoint x="1984" y="625" as="sourcePoint" />
            <mxPoint x="1900" y="600" as="targetPoint" />
            <Array as="points" />
          </mxGeometry>
        </mxCell>
        <mxCell id="FMqgNXlzVBc7Y1tqh_Sm-92" value="" style="edgeStyle=none;orthogonalLoop=1;jettySize=auto;html=1;rounded=0;" edge="1" parent="1">
          <mxGeometry width="80" relative="1" as="geometry">
            <mxPoint x="760" y="103" as="sourcePoint" />
            <mxPoint x="847" y="103" as="targetPoint" />
            <Array as="points" />
          </mxGeometry>
        </mxCell>
        <mxCell id="FMqgNXlzVBc7Y1tqh_Sm-93" value="" style="edgeStyle=none;orthogonalLoop=1;jettySize=auto;html=1;rounded=0;startArrow=classic;startFill=1;dashed=1;dashPattern=8 8;" edge="1" parent="1">
          <mxGeometry width="80" relative="1" as="geometry">
            <mxPoint x="1950" y="939" as="sourcePoint" />
            <mxPoint x="1950" y="1067" as="targetPoint" />
            <Array as="points" />
          </mxGeometry>
        </mxCell>
        <mxCell id="FMqgNXlzVBc7Y1tqh_Sm-94" value="7 cm&lt;br style=&quot;font-size: 18px;&quot;&gt;Water Gap&lt;br&gt;Between&lt;br&gt;Enclosures" style="edgeLabel;html=1;align=center;verticalAlign=middle;resizable=0;points=[];fontSize=18;" vertex="1" connectable="0" parent="FMqgNXlzVBc7Y1tqh_Sm-93">
          <mxGeometry x="-0.1229" y="-2" relative="1" as="geometry">
            <mxPoint x="84" y="7" as="offset" />
          </mxGeometry>
        </mxCell>
        <mxCell id="FMqgNXlzVBc7Y1tqh_Sm-95" value="" style="edgeStyle=none;orthogonalLoop=1;jettySize=auto;html=1;rounded=0;exitX=0;exitY=0.5;exitDx=0;exitDy=0;entryX=1;entryY=0.5;entryDx=0;entryDy=0;" edge="1" parent="1" source="FMqgNXlzVBc7Y1tqh_Sm-68" target="FMqgNXlzVBc7Y1tqh_Sm-67">
          <mxGeometry width="80" relative="1" as="geometry">
            <mxPoint x="2467.8" y="313.8333333333335" as="sourcePoint" />
            <mxPoint x="2468" y="550" as="targetPoint" />
            <Array as="points" />
          </mxGeometry>
        </mxCell>
        <mxCell id="FMqgNXlzVBc7Y1tqh_Sm-96" value="GPIO Pin" style="edgeLabel;html=1;align=center;verticalAlign=middle;resizable=0;points=[];fontSize=18;" vertex="1" connectable="0" parent="FMqgNXlzVBc7Y1tqh_Sm-95">
          <mxGeometry x="-0.2462" y="1" relative="1" as="geometry">
            <mxPoint as="offset" />
          </mxGeometry>
        </mxCell>
        <mxCell id="FMqgNXlzVBc7Y1tqh_Sm-102" value="Connect to &lt;br&gt;Network Time Server &lt;br&gt;via Hotspot before Dive" style="shape=parallelogram;perimeter=parallelogramPerimeter;whiteSpace=wrap;html=1;fixedSize=1;fontSize=16;" vertex="1" parent="1">
          <mxGeometry x="1463" y="206" width="219" height="79" as="geometry" />
        </mxCell>
        <mxCell id="FMqgNXlzVBc7Y1tqh_Sm-103" value="" style="edgeStyle=none;orthogonalLoop=1;jettySize=auto;html=1;rounded=0;entryX=0;entryY=0.5;entryDx=0;entryDy=0;exitX=0.963;exitY=0.545;exitDx=0;exitDy=0;exitPerimeter=0;" edge="1" parent="1" source="FMqgNXlzVBc7Y1tqh_Sm-102" target="FMqgNXlzVBc7Y1tqh_Sm-67">
          <mxGeometry width="80" relative="1" as="geometry">
            <mxPoint x="1636" y="249" as="sourcePoint" />
            <mxPoint x="1364.8571428571431" y="239.71428571428578" as="targetPoint" />
            <Array as="points" />
          </mxGeometry>
        </mxCell>
        <mxCell id="FMqgNXlzVBc7Y1tqh_Sm-105" value="SPI" style="edgeStyle=none;orthogonalLoop=1;jettySize=auto;html=1;rounded=0;entryX=1;entryY=0.5;entryDx=0;entryDy=0;exitX=0;exitY=0.5;exitDx=0;exitDy=0;fontSize=18;" edge="1" parent="1" source="FMqgNXlzVBc7Y1tqh_Sm-72" target="FMqgNXlzVBc7Y1tqh_Sm-70">
          <mxGeometry width="80" relative="1" as="geometry">
            <mxPoint x="2326.5" y="1220" as="sourcePoint" />
            <mxPoint x="2406.5" y="1220" as="targetPoint" />
            <Array as="points" />
          </mxGeometry>
        </mxCell>
        <mxCell id="FMqgNXlzVBc7Y1tqh_Sm-106" value="I2S" style="edgeStyle=none;orthogonalLoop=1;jettySize=auto;html=1;rounded=0;entryX=0.5;entryY=0;entryDx=0;entryDy=0;exitX=0.5;exitY=1;exitDx=0;exitDy=0;" edge="1" parent="1" source="FMqgNXlzVBc7Y1tqh_Sm-70" target="FMqgNXlzVBc7Y1tqh_Sm-74">
          <mxGeometry width="80" relative="1" as="geometry">
            <mxPoint x="2056" y="1271" as="sourcePoint" />
            <mxPoint x="1947" y="1271" as="targetPoint" />
            <Array as="points" />
          </mxGeometry>
        </mxCell>
        <mxCell id="FMqgNXlzVBc7Y1tqh_Sm-107" value="Analogue &lt;br style=&quot;font-size: 18px;&quot;&gt;Speaker&lt;br style=&quot;font-size: 18px;&quot;&gt;Signal" style="edgeStyle=none;orthogonalLoop=1;jettySize=auto;html=1;rounded=0;entryX=0;entryY=0.5;entryDx=0;entryDy=0;exitX=1;exitY=0.5;exitDx=0;exitDy=0;fontSize=18;" edge="1" parent="1" source="FMqgNXlzVBc7Y1tqh_Sm-74" target="FMqgNXlzVBc7Y1tqh_Sm-75">
          <mxGeometry width="80" relative="1" as="geometry">
            <mxPoint x="1866" y="1351" as="sourcePoint" />
            <mxPoint x="1871" y="1487" as="targetPoint" />
            <Array as="points" />
          </mxGeometry>
        </mxCell>
        <mxCell id="FMqgNXlzVBc7Y1tqh_Sm-108" value="" style="edgeStyle=none;orthogonalLoop=1;jettySize=auto;html=1;rounded=0;exitX=0.5;exitY=1;exitDx=0;exitDy=0;" edge="1" parent="1" source="FMqgNXlzVBc7Y1tqh_Sm-71" target="FMqgNXlzVBc7Y1tqh_Sm-73">
          <mxGeometry width="80" relative="1" as="geometry">
            <mxPoint x="1602.5" y="1336" as="sourcePoint" />
            <mxPoint x="1682.5" y="1336" as="targetPoint" />
            <Array as="points" />
          </mxGeometry>
        </mxCell>
        <mxCell id="FMqgNXlzVBc7Y1tqh_Sm-109" value="2 x Reed Switch Inputs (External Magnet Actuation)" style="whiteSpace=wrap;html=1;shadow=1;fontSize=18;fillColor=#f5f5f5;strokeColor=#666666;" vertex="1" parent="1">
          <mxGeometry x="2065.64" y="245" width="213.25" height="82" as="geometry" />
        </mxCell>
        <mxCell id="FMqgNXlzVBc7Y1tqh_Sm-110" value="" style="edgeStyle=none;orthogonalLoop=1;jettySize=auto;html=1;rounded=0;entryX=0.997;entryY=0.699;entryDx=0;entryDy=0;exitX=-0.003;exitY=0.478;exitDx=0;exitDy=0;exitPerimeter=0;entryPerimeter=0;" edge="1" parent="1" source="FMqgNXlzVBc7Y1tqh_Sm-109" target="FMqgNXlzVBc7Y1tqh_Sm-67">
          <mxGeometry width="80" relative="1" as="geometry">
            <mxPoint x="1972" y="179" as="sourcePoint" />
            <mxPoint x="1889" y="259" as="targetPoint" />
            <Array as="points" />
          </mxGeometry>
        </mxCell>
        <mxCell id="FMqgNXlzVBc7Y1tqh_Sm-111" value="2 x &lt;br style=&quot;font-size: 18px;&quot;&gt;GPIO Pins" style="edgeLabel;html=1;align=center;verticalAlign=middle;resizable=0;points=[];fontSize=18;" vertex="1" connectable="0" parent="FMqgNXlzVBc7Y1tqh_Sm-110">
          <mxGeometry x="-0.2462" y="1" relative="1" as="geometry">
            <mxPoint x="-7" y="-1" as="offset" />
          </mxGeometry>
        </mxCell>
        <mxCell id="FMqgNXlzVBc7Y1tqh_Sm-112" value="2 x External Physical Push Button Inputs" style="whiteSpace=wrap;html=1;shadow=1;fontSize=18;fillColor=#f5f5f5;strokeColor=#666666;" vertex="1" parent="1">
          <mxGeometry x="2065.64" y="397.5" width="213.25" height="82" as="geometry" />
        </mxCell>
        <mxCell id="FMqgNXlzVBc7Y1tqh_Sm-113" value="" style="edgeStyle=none;orthogonalLoop=1;jettySize=auto;html=1;rounded=0;entryX=1.002;entryY=0.084;entryDx=0;entryDy=0;exitX=-0.006;exitY=0.427;exitDx=0;exitDy=0;exitPerimeter=0;entryPerimeter=0;" edge="1" parent="1" source="FMqgNXlzVBc7Y1tqh_Sm-112" target="FMqgNXlzVBc7Y1tqh_Sm-23">
          <mxGeometry width="80" relative="1" as="geometry">
            <mxPoint x="1985" y="384" as="sourcePoint" />
            <mxPoint x="1899" y="384" as="targetPoint" />
            <Array as="points" />
          </mxGeometry>
        </mxCell>
        <mxCell id="FMqgNXlzVBc7Y1tqh_Sm-114" value="2 x &lt;br style=&quot;font-size: 18px;&quot;&gt;GPIO Pins" style="edgeLabel;html=1;align=center;verticalAlign=middle;resizable=0;points=[];fontSize=18;" vertex="1" connectable="0" parent="FMqgNXlzVBc7Y1tqh_Sm-113">
          <mxGeometry x="-0.2462" y="1" relative="1" as="geometry">
            <mxPoint x="-7" y="-1" as="offset" />
          </mxGeometry>
        </mxCell>
        <mxCell id="FMqgNXlzVBc7Y1tqh_Sm-115" value="" style="edgeStyle=none;orthogonalLoop=1;jettySize=auto;html=1;rounded=0;exitX=1;exitY=0.5;exitDx=0;exitDy=0;entryX=0;entryY=0.5;entryDx=0;entryDy=0;" edge="1" parent="1" source="FMqgNXlzVBc7Y1tqh_Sm-32" target="FMqgNXlzVBc7Y1tqh_Sm-33">
          <mxGeometry width="80" relative="1" as="geometry">
            <mxPoint x="856.363636363636" y="1084.8181818181815" as="sourcePoint" />
            <mxPoint x="936.363636363636" y="1084.8181818181815" as="targetPoint" />
            <Array as="points" />
          </mxGeometry>
        </mxCell>
        <mxCell id="FMqgNXlzVBc7Y1tqh_Sm-116" value="" style="html=1;verticalLabelPosition=bottom;align=center;labelBackgroundColor=#ffffff;verticalAlign=top;strokeWidth=2;strokeColor=#0080F0;shadow=0;dashed=0;shape=mxgraph.ios7.icons.wifi;pointerEvents=1" vertex="1" parent="1">
          <mxGeometry x="1685" y="260" width="29.7" height="21" as="geometry" />
        </mxCell>
        <mxCell id="FMqgNXlzVBc7Y1tqh_Sm-118" value="" style="edgeStyle=none;orthogonalLoop=1;jettySize=auto;html=1;rounded=0;exitX=0.5;exitY=0;exitDx=0;exitDy=0;entryX=0.5;entryY=1;entryDx=0;entryDy=0;" edge="1" parent="1" source="FMqgNXlzVBc7Y1tqh_Sm-32" target="3a17f1ce550125da-2">
          <mxGeometry width="80" relative="1" as="geometry">
            <mxPoint x="749" y="803" as="sourcePoint" />
            <mxPoint x="884" y="803" as="targetPoint" />
            <Array as="points" />
          </mxGeometry>
        </mxCell>
        <mxCell id="FMqgNXlzVBc7Y1tqh_Sm-119" value="" style="edgeStyle=none;orthogonalLoop=1;jettySize=auto;html=1;rounded=0;entryX=0.5;entryY=0;entryDx=0;entryDy=0;exitX=0.999;exitY=0.666;exitDx=0;exitDy=0;exitPerimeter=0;" edge="1" parent="1" source="FMqgNXlzVBc7Y1tqh_Sm-59" target="FMqgNXlzVBc7Y1tqh_Sm-23">
          <mxGeometry width="80" relative="1" as="geometry">
            <mxPoint x="1336.1764705882356" y="375.7647058823529" as="sourcePoint" />
            <mxPoint x="1416.1764705882356" y="375.7647058823529" as="targetPoint" />
            <Array as="points" />
          </mxGeometry>
        </mxCell>
        <mxCell id="FMqgNXlzVBc7Y1tqh_Sm-120" value="" style="edgeStyle=none;orthogonalLoop=1;jettySize=auto;html=1;rounded=0;entryX=0.5;entryY=1;entryDx=0;entryDy=0;exitX=1;exitY=0.25;exitDx=0;exitDy=0;" edge="1" parent="1" source="FMqgNXlzVBc7Y1tqh_Sm-59" target="FMqgNXlzVBc7Y1tqh_Sm-67">
          <mxGeometry width="80" relative="1" as="geometry">
            <mxPoint x="1673" y="409" as="sourcePoint" />
            <mxPoint x="1819" y="499" as="targetPoint" />
            <Array as="points" />
          </mxGeometry>
        </mxCell>
        <mxCell id="FMqgNXlzVBc7Y1tqh_Sm-121" value="" style="edgeStyle=none;orthogonalLoop=1;jettySize=auto;html=1;rounded=0;entryX=0;entryY=0.5;entryDx=0;entryDy=0;exitX=1;exitY=0.5;exitDx=0;exitDy=0;" edge="1" parent="1" source="FMqgNXlzVBc7Y1tqh_Sm-73" target="FMqgNXlzVBc7Y1tqh_Sm-74">
          <mxGeometry width="80" relative="1" as="geometry">
            <mxPoint x="1240.833333333334" y="1512.166666666667" as="sourcePoint" />
            <mxPoint x="1320.833333333334" y="1512.166666666667" as="targetPoint" />
            <Array as="points" />
          </mxGeometry>
        </mxCell>
        <mxCell id="FMqgNXlzVBc7Y1tqh_Sm-122" value="" style="edgeStyle=none;orthogonalLoop=1;jettySize=auto;html=1;rounded=0;entryX=0;entryY=0.5;entryDx=0;entryDy=0;exitX=1;exitY=0.5;exitDx=0;exitDy=0;" edge="1" parent="1" source="FMqgNXlzVBc7Y1tqh_Sm-71" target="FMqgNXlzVBc7Y1tqh_Sm-70">
          <mxGeometry width="80" relative="1" as="geometry">
            <mxPoint x="1332.5" y="1183.8333333333335" as="sourcePoint" />
            <mxPoint x="1412.5" y="1183.8333333333335" as="targetPoint" />
            <Array as="points" />
          </mxGeometry>
        </mxCell>
        <mxCell id="FMqgNXlzVBc7Y1tqh_Sm-123" value="" style="edgeStyle=none;orthogonalLoop=1;jettySize=auto;html=1;rounded=0;entryX=0.5;entryY=0;entryDx=0;entryDy=0;" edge="1" parent="1" target="FMqgNXlzVBc7Y1tqh_Sm-70">
          <mxGeometry width="80" relative="1" as="geometry">
            <mxPoint x="1859" y="1061" as="sourcePoint" />
            <mxPoint x="1868" y="964" as="targetPoint" />
            <Array as="points" />
          </mxGeometry>
        </mxCell>
        <mxCell id="FMqgNXlzVBc7Y1tqh_Sm-124" value="aphic" style="rhombus;whiteSpace=wrap;html=1;" vertex="1" parent="1">
          <mxGeometry x="1824" y="1151" width="80" height="80" as="geometry" />
        </mxCell>
      </root>
    </mxGraphModel>
  </diagram>
</mxfile>
